<svg xmlns="http://www.w3.org/2000/svg" version="1.1" xmlns:xlink="http://www.w3.org/1999/xlink" xmlns:svgjs="http://svgjs.dev/svgjs" width="1500" height="1500" viewBox="0 0 1500 1500"><rect width="1500" height="1500" fill="#4a5d5e"></rect><g transform="matrix(0.6666666666666666,0,0,0.6666666666666666,250.00007343750008,187.66666666666674)"><svg viewBox="0 0 320 360" data-background-color="#4a5d5e" preserveAspectRatio="xMidYMid meet" height="1687" width="1500" xmlns="http://www.w3.org/2000/svg" xmlns:xlink="http://www.w3.org/1999/xlink"><g id="tight-bounds" transform="matrix(1,0,0,1,0.000023499999997511622,0)"><svg viewBox="0 0 320 360" height="360" width="320"><g><svg></svg></g><g><svg viewBox="0 0 320 360" height="360" width="320"><g><path transform="translate(-74.99272,-51.79039) scale(4.65793,4.65793)" d="M20.6 59.9l0.8 1-0.4-1.3c-0.1-0.6-0.8 0.1-0.4 0.3M21.5 59.3c0.3 0.5 0.6 1 0.6 1.5 0 0.7 0.6 1 1.1 1.2-0.7-0.8-1.1-3-1.7-2.7M59.9 16.9c1.7 0 3.3-0.2 5.1 0.2 4.4 1.1 8.1 3.3 10.6 6.4l7 11.2c0.3 2.8 0.9 5.9 0.8 9.3 0.7 0 0.6-1 1.4-1.2-0.8 2-1.2 4.5-1.4 7.4-0.5-1.6 0-4 0.1-5.3-0.7 1.1-1.1 0.3-1.1-0.2 0.1-0.8-0.3-0.7-0.6-1-1.1-1-1.8-2.1-2.6-3.8 0.5-1.3 0.6-3.2-1-4.2-0.5-0.3-1.1-0.8-1.4-1.6-0.4-1.1-1.1-2.4-0.9-4.1 0.1-0.5-1.5 1.1-2.4 0.4-3.9-2.7-7.8-5.8-12.5-8.4-2.5 0-4.3-0.9-5.2-2-0.8-1-0.2-2.3 1-2.4 0.7 0 1.5-0.2 2.1 0.2 0.1-0.4 0.5-0.9 1-0.9M50 14.6l0.2 0.1c1 0.2 1.5 1.6 2.6 1.1 0 0.7 0.1 1.4-0.1 1.9-0.3 0.8-1.2 0.8-1.9 0.8-6.7-0.4-10.6 2.4-14.7 4.8-1.1 0.7-2.3 1.2-3.2 2.1-4.3 4-9 7.7-10.1 15.1l-0.9 8.2c-0.1 0.9-1.1 1.8-0.9 2.9l0.7 4.9c-0.7-0.7-1.1 0.2-0.9 0.6 0.1 0.3 0.5 1.3 1.1 0.4 0.8 1.5 1.6 4.4 2.7 5.7 3.4 4 7.8 7.6 11.4 11.2 0.9-0.2 1.6-0.2 1.8-0.8 0.3 0.6-0.3 1.2-0.8 1.3 1.6 1 3.4 1.9 5.8 2.1 3.1 0.2 6 0.7 8.7 1.4 1.4-0.4 2.8-0.6 4.3-0.7 0.5 0 0.8-0.8 1.4-1l0.1-1c0.6 0.9 0.5-0.3 0.1-0.9 0.7 0.6 0.9 1.1 1.2 1.5 0-0.3 0.8-1.4 0.8-0.1l0.2-1.3c0.3-0.2 0.4 1.1 0.7 0.2 0.3-0.9 0.9-0.2 1.5-0.5-0.2 0.4-0.1 1.2 0.6 0.7l0.8-0.7c0.5 1.2 1.3 0.7 1.7 0.5 4.4-2.8 8.8-6.1 13-9.4l-0.1 1.3 0.5-1.6c0.5 0.5 0.9 0.1 1.1-0.2 0.6-1 1.4-2 2.7-2.9-1.6 4.3-3.5 7.7-5.9 10.5l-1 1.2c0 0.7-0.2 1.6-1 1.7-0.4 0.1-1.2-0.2-1.8 0.4-0.3 0.4 0.7 1.2-0.1 0.6-0.7-0.5-1.4 0-2.2 0.2-0.6 0.2 0.4 0.8 0.6 1.2 0.2 0.4 0.4 0.8 0.3 1.3l-1.1-1.2c-1.3 0.7-2.1 2-3.2 3-0.5 0.4-0.3 1.1-0.3 1.7-0.7 0-1.5-0.2-1.9 0.2-0.3 0.4-0.2 1-0.2 1.6-1-0.1-1.1-1.6-2-1.3-0.9 0.2-1.9 0.3-2.7 0.8 0.6 1.2-1 0.5-0.8 0.7-1.5-0.9-2.8-1.6-4.4-1-3.4-1.1-7.6-0.6-10.7-0.2 0-0.5 0.1-1-0.1-1.1-0.2 0.5-0.8 0.3-0.7 0.3-1.9-1.3-3.8-2.1-5.8-3.2-1.8 0.2-3.5-0.7-4-1.2-1.4-1.3-3-0.6-4.3-0.9-2.8-0.7-3.8-3.6-4.1-5.6-0.2-1-1-1.4-1.3-1.3-1.3-4.2-3.3-8-4.9-11.9-0.4-1-0.3-2-0.3-3.1 0.5 0.2 1 0.1 0.9-0.6-0.5-3.3-1.7-5.8-3-8.2 0.7-3.4 0.8-7.4 2.4-10.4 1.4-2.7 4-4.1 5.8-6.4 0.6-0.8 0.6-1.9 1.2-2.6 2-2 4-4.1 6.2-5.9 1-0.8 2.2 0 3.7-0.3 0.5-1.8 2.5-3.4 4.4-2.9 0.8 0.2 2.4-1.9 2.9-2.1 0.8-0.3 0.4 0.8 0.4 1.5 1.9-1.5 4.5-2.3 6.9-3.2" fill="#d2dbc8" fill-rule="nonzero" stroke="none" stroke-width="1" stroke-linecap="butt" stroke-linejoin="miter" stroke-miterlimit="10" stroke-dasharray="" stroke-dashoffset="0" font-family="none" font-weight="none" font-size="none" text-anchor="none" style="mix-blend-mode: normal" data-fill-palette-color="tertiary"></path></g><g transform="matrix(1,0,0,1,64,115.24024036796195)"><svg viewBox="0 0 192 129.5195192640761" height="129.5195192640761" width="192"><g><svg viewBox="0 0 192 129.5195192640761" height="129.5195192640761" width="192"><g><svg viewBox="0 0 192 129.5195192640761" height="129.5195192640761" width="192"><g transform="matrix(1,0,0,1,0,78.28399190483742)"><svg viewBox="0 0 192 51.23552735923869" height="51.23552735923869" width="192"><g id="textblocktransform"><svg viewBox="0 0 192 51.23552735923869" height="51.23552735923869" width="192" id="textblock"><g><svg viewBox="0 0 192 51.23552735923869" height="51.23552735923869" width="192"><g transform="matrix(1,0,0,1,0,0)"><svg width="192" viewBox="1.5 -32.9 126.09 33.65" height="51.23552735923869" data-palette-color="#d2dbc8"><path d="M20.3-17.35L20.3-17.35Q24.5-16.85 26.85-14.48 29.2-12.1 29.2-8.95L29.2-8.95Q29.2-5.1 25.78-2.63 22.35-0.15 16.7 0L16.7 0 1.8 0 1.5-1.6 5.75-3.15 5.75-29.9 2.2-30.1 2.25-32.5Q10.55-32.9 15.3-32.9L15.3-32.9Q20.9-32.9 24.18-30.68 27.45-28.45 27.45-24.6L27.45-24.6Q27.45-21.85 25.65-19.8 23.85-17.75 20.3-17.35ZM17.25-29.95L10.4-29.2 10.4-18.4 12.9-18.4Q17.7-18.4 20-20.1 22.3-21.8 22.3-24.25L22.3-24.25Q22.3-26.25 20.88-27.93 19.45-29.6 17.25-29.95L17.25-29.95ZM10.4-3.45L15.4-3.05 16.5-3Q20-3 21.9-4.7 23.8-6.4 23.8-8.85L23.8-8.85Q23.8-11.6 21.5-13.6 19.2-15.6 15.7-15.7L15.7-15.7 10.4-15.7 10.4-3.45ZM49.5-12.85L36.65-13.1Q36.65-8.15 38.92-5.6 41.2-3.05 44.85-3.05L44.85-3.05Q47.55-3.05 51.25-4.7L51.25-4.7 52-2.55 44.2 0.75Q38.7 0.75 35.32-2.63 31.95-6 31.95-11.3L31.95-11.3Q31.95-16.7 35.27-20.55 38.6-24.4 43.4-24.4L43.4-24.4Q46-24.4 48.07-23.25 50.15-22.1 51.27-20.1 52.4-18.1 52.35-15.65L52.35-15.65 49.5-12.85ZM40.9-21.35L40.9-21.35Q38.05-19.85 37.05-15.75L37.05-15.75 48-16.25Q47.5-18.65 45.52-20.1 43.55-21.55 40.9-21.35ZM76.84-3.75L77.59-1.55 72.55 0.75Q71.8 0.65 70.65-0.43 69.5-1.5 69-2.7L69-2.7 63.35 0.7 62.15 0.75Q59.15 0.75 57.32-0.95 55.5-2.65 55.5-5.2L55.5-5.2Q55.5-8.6 59-10.55L59-10.55 68.75-10.8 68.75-15.95Q68.75-18.25 68.2-19.43 67.65-20.6 66.3-21.3L66.3-21.3Q63.25-21.2 60.65-20.45L60.65-20.45 60.25-15.25 57.6-15.05Q56.3-17.4 56.15-21.05L56.15-21.05Q58.35-22.3 62.05-23.48 65.75-24.65 67.3-24.65L67.3-24.65Q68.7-24.65 70.2-23.63 71.7-22.6 72.45-21.48 73.2-20.35 73.25-17.4L73.25-17.4 73.25-4.3Q73.25-3.3 74.55-3.3L74.55-3.3Q75.3-3.3 76.84-3.75L76.84-3.75ZM61.5-2.9L61.5-2.9Q64.45-2.8 68.75-4.75L68.75-4.75 68.75-8.2 66.25-8.35Q60.2-8.35 60.2-5.2L60.2-5.2Q60.2-3.7 61.5-2.9ZM88.89-3.4L88.89-3.4Q90.34-3.4 93.49-4.55L93.49-4.55 94.34-2.25 87.84 0.75Q86.14 0.85 84.47-0.53 82.79-1.9 82.79-3.5L82.79-3.5 82.79-19.65 79.69-19.6 79.34-22Q80.94-22.7 82.89-23.15L82.89-23.15 84.89-29.45 87.24-29.45 87.24-23.4 94.24-23.4 94.44-21.95 92.09-19.55 87.24-19.55 87.24-6.1Q87.24-4.55 87.59-3.98 87.94-3.4 88.89-3.4ZM105.89-2.9L110.74-2.35 110.69 0 97.29 0 96.99-1.6 101.24-3.15 101.24-29.7 97.39-30.15 97.44-32.5 109.84-32.5 110.14-30.9 105.89-29.35 105.89-2.9ZM122.04-3.4L122.04-3.4Q123.49-3.4 126.64-4.55L126.64-4.55 127.49-2.25 120.99 0.75Q119.29 0.85 117.61-0.53 115.94-1.9 115.94-3.5L115.94-3.5 115.94-19.65 112.84-19.6 112.49-22Q114.09-22.7 116.04-23.15L116.04-23.15 118.04-29.45 120.39-29.45 120.39-23.4 127.39-23.4 127.59-21.95 125.24-19.55 120.39-19.55 120.39-6.1Q120.39-4.55 120.74-3.98 121.09-3.4 122.04-3.4Z" opacity="1" transform="matrix(1,0,0,1,0,0)" fill="#d2dbc8" class="wordmark-text-0" data-fill-palette-color="primary" id="text-0"></path></svg></g></svg></g></svg></g></svg></g><g transform="matrix(1,0,0,1,59.80558274936347,0)"><svg viewBox="0 0 72.38883450127307 70.80749881046788" height="70.80749881046788" width="72.38883450127307"><g><svg xmlns="http://www.w3.org/2000/svg" xmlns:xlink="http://www.w3.org/1999/xlink" version="1.1" x="0" y="0" viewBox="9.762 11.641 80.476 78.71799999999999" enable-background="new 0 0 100 100" xml:space="preserve" height="70.80749881046788" width="72.38883450127307" class="icon-icon-0" data-fill-palette-color="accent" id="icon-0"><g fill="#f8f8ec" data-fill-palette-color="accent"><g fill="#f8f8ec" data-fill-palette-color="accent"><g fill="#f8f8ec" data-fill-palette-color="accent"><path d="M50 63.201c-10.178 0-19.78-0.969-27.038-2.727-8.882-2.152-13.2-5.192-13.2-9.295s4.317-7.144 13.2-9.296c7.259-1.759 16.86-2.728 27.038-2.728s19.779 0.969 27.038 2.728c8.883 2.152 13.2 5.193 13.2 9.296s-4.318 7.143-13.2 9.295C69.78 62.232 60.178 63.201 50 63.201zM15.888 51.18c1.714 1.962 12.867 6.021 34.112 6.021s32.398-4.06 34.112-6.021C82.398 49.217 71.245 45.156 50 45.156S17.602 49.217 15.888 51.18z" fill="#f8f8ec" data-fill-palette-color="accent"></path></g><g fill="#f8f8ec" data-fill-palette-color="accent"><path d="M50.022 90.359C48.389 90.359 10 90.225 10 78.477V53c0-1.657 1.343-3 3-3s3 1.343 3 3v25.276c0.48 0.653 3.018 2.395 10.154 3.91 6.597 1.401 15.073 2.173 23.868 2.173 8.794 0 17.264-0.771 23.85-2.173 7.123-1.516 9.651-3.256 10.128-3.907V53c0-1.657 1.343-3 3-3s3 1.343 3 3v25.477C90 90.225 51.655 90.359 50.022 90.359z" fill="#f8f8ec" data-fill-palette-color="accent"></path></g><g fill="#f8f8ec" data-fill-palette-color="accent"><path d="M50.022 67.428c-9.939 0-19.334-0.945-26.454-2.66-8.752-2.109-13.006-5.099-13.006-9.139 0-1.657 1.343-3 3-3 1.589 0 2.89 1.235 2.993 2.798 1.411 2.197 13.55 6.001 33.467 6.001 19.898 0 32.018-3.803 33.422-5.998 0.103-1.564 1.403-2.801 2.993-2.801 1.657 0 3 1.343 3 3 0 4.04-4.246 7.029-12.982 9.138C69.347 66.482 59.959 67.428 50.022 67.428z" fill="#f8f8ec" data-fill-palette-color="accent"></path></g><g fill="#f8f8ec" data-fill-palette-color="accent"><path d="M50.022 84.996c-14.68 0-39.522-2.408-39.522-11.436 0-1.381 1.119-2.5 2.5-2.5 1.365 0 2.476 1.095 2.5 2.455 0.692 1.865 11.862 6.48 34.522 6.48 22.734 0 33.881-4.651 34.485-6.502 0-1.38 1.115-2.467 2.496-2.467S89.5 72.18 89.5 73.561C89.5 82.588 64.686 84.996 50.022 84.996z" fill="#f8f8ec" data-fill-palette-color="accent"></path></g></g><g fill="#f8f8ec" data-fill-palette-color="accent"><g fill="#f8f8ec" data-fill-palette-color="accent"><g fill="#f8f8ec" data-fill-palette-color="accent"><g fill="#f8f8ec" data-fill-palette-color="accent"><path d="M76.161 53.017c-0.417 0-0.851-0.139-1.221-0.391-0.478-0.323-0.809-0.804-0.906-1.316-0.078-0.406-0.002-0.807 0.215-1.126 0.28-0.411 0.757-0.647 1.309-0.647 0.416 0 0.85 0.139 1.219 0.391 0.887 0.604 1.196 1.699 0.691 2.444C77.188 52.781 76.712 53.017 76.161 53.017z" fill="#f8f8ec" data-fill-palette-color="accent"></path></g><g fill="#f8f8ec" data-fill-palette-color="accent"><path d="M75.558 50.036c0.306 0 0.638 0.1 0.937 0.303 0.66 0.449 0.91 1.233 0.559 1.75-0.192 0.283-0.523 0.427-0.892 0.427-0.307 0-0.64-0.1-0.94-0.304-0.66-0.447-0.91-1.23-0.559-1.748C74.855 50.182 75.188 50.036 75.558 50.036M75.558 49.036c-0.72 0-1.348 0.316-1.722 0.866-0.292 0.43-0.396 0.963-0.293 1.501 0.123 0.642 0.531 1.239 1.118 1.637 0.451 0.307 0.984 0.476 1.5 0.476 0.719 0 1.346-0.315 1.72-0.865 0.66-0.972 0.291-2.38-0.823-3.139C76.606 49.206 76.073 49.036 75.558 49.036L75.558 49.036z" fill="#f8f8ec" data-fill-palette-color="accent"></path></g></g><g fill="#f8f8ec" data-fill-palette-color="accent"><g fill="#f8f8ec" data-fill-palette-color="accent"><path d="M76.712 52.478c-2.702 0-40.371-25.616-56.441-36.629l-0.323-0.222c-0.78-0.531-0.925-1.685-0.323-2.572 0.384-0.563 1.007-0.914 1.627-0.914 0.32 0 0.626 0.093 0.883 0.269l0.233 0.157c20.348 13.71 54.545 37.034 54.962 39.198l0.039 0.204-0.128 0.248C77.175 52.313 77.018 52.478 76.712 52.478z" fill="#f8f8ec" data-fill-palette-color="accent"></path></g><g fill="#f8f8ec" data-fill-palette-color="accent"><path d="M21.251 12.641c0.214 0 0.421 0.058 0.602 0.181 0.553 0.375 55.975 37.645 54.975 39.113-0.019 0.028-0.058 0.042-0.115 0.042-2.961 0-55.942-36.397-56.484-36.764-0.554-0.377-0.638-1.217-0.19-1.877C20.341 12.891 20.809 12.641 21.251 12.641M21.251 11.641L21.251 11.641c-0.795 0-1.557 0.423-2.039 1.132-0.757 1.116-0.554 2.58 0.453 3.266l0.322 0.22c4.683 3.21 16.855 11.528 28.706 19.43 25.926 17.288 27.34 17.288 28.019 17.288 0.392 0 0.735-0.175 0.943-0.48 0.163-0.239 0.222-0.533 0.165-0.827-0.141-0.732-0.354-1.839-26.483-19.939-11.867-8.22-24.016-16.431-28.688-19.579l-0.234-0.158C22.075 11.763 21.672 11.641 21.251 11.641L21.251 11.641z" fill="#f8f8ec" data-fill-palette-color="accent"></path></g></g></g><g fill="#f8f8ec" data-fill-palette-color="accent"><g fill="#f8f8ec" data-fill-palette-color="accent"><g fill="#f8f8ec" data-fill-palette-color="accent"><path d="M23.839 53.017c-0.551 0-1.027-0.235-1.307-0.646-0.505-0.745-0.195-1.841 0.691-2.444 0.369-0.252 0.803-0.391 1.219-0.391 0.552 0 1.028 0.236 1.309 0.647 0.217 0.319 0.293 0.72 0.215 1.126-0.098 0.513-0.429 0.993-0.907 1.317C24.689 52.878 24.256 53.017 23.839 53.017L23.839 53.017z" fill="#f8f8ec" data-fill-palette-color="accent"></path></g><g fill="#f8f8ec" data-fill-palette-color="accent"><path d="M24.442 50.036c0.37 0 0.702 0.145 0.894 0.428 0.352 0.518 0.102 1.301-0.559 1.748-0.3 0.204-0.633 0.304-0.939 0.304-0.369 0-0.701-0.145-0.893-0.427-0.352-0.517-0.102-1.301 0.559-1.75C23.804 50.136 24.136 50.036 24.442 50.036M24.442 49.036c-0.516 0-1.049 0.169-1.5 0.476-1.114 0.758-1.484 2.166-0.823 3.139 0.374 0.55 1 0.865 1.72 0.865 0.516 0 1.05-0.17 1.502-0.477 0.586-0.397 0.993-0.993 1.116-1.635 0.103-0.538-0.001-1.071-0.293-1.501C25.79 49.352 25.163 49.036 24.442 49.036L24.442 49.036z" fill="#f8f8ec" data-fill-palette-color="accent"></path></g></g><g fill="#f8f8ec" data-fill-palette-color="accent"><g fill="#f8f8ec" data-fill-palette-color="accent"><path d="M23.288 52.478c-0.306 0-0.463-0.164-0.529-0.261l-0.116-0.172 0.028-0.28c0.417-2.164 34.614-25.488 54.962-39.198l0.234-0.158c0.256-0.175 0.562-0.268 0.882-0.268 0.62 0 1.243 0.351 1.626 0.914 0.603 0.888 0.458 2.041-0.321 2.571l-0.326 0.224C63.659 26.862 25.994 52.478 23.288 52.478L23.288 52.478z" fill="#f8f8ec" data-fill-palette-color="accent"></path></g><g fill="#f8f8ec" data-fill-palette-color="accent"><path d="M78.749 12.641c0.442 0 0.91 0.25 1.212 0.695 0.448 0.66 0.364 1.5-0.189 1.877-0.542 0.368-53.524 36.764-56.484 36.764-0.057 0-0.096-0.014-0.115-0.042-1-1.469 54.422-38.738 54.975-39.113C78.328 12.699 78.536 12.641 78.749 12.641M78.749 11.641c-0.421 0-0.824 0.123-1.165 0.355l-0.232 0.157c-4.673 3.148-16.821 11.359-28.688 19.579-26.13 18.1-26.343 19.207-26.483 19.939-0.056 0.294 0.002 0.588 0.166 0.828 0.206 0.304 0.55 0.479 0.942 0.479 0.679 0 2.093 0 28.019-17.288 11.851-7.902 24.023-16.22 28.706-19.43l0.321-0.22c1.009-0.687 1.212-2.152 0.455-3.266C80.306 12.064 79.544 11.641 78.749 11.641L78.749 11.641z" fill="#f8f8ec" data-fill-palette-color="accent"></path></g></g></g></g></g></svg></g></svg></g><g></g></svg></g></svg></g></svg></g></svg></g><defs></defs></svg><rect width="320" height="360" fill="none" stroke="none" visibility="hidden"></rect></g></svg></g></svg>