<svg xmlns="http://www.w3.org/2000/svg" version="1.1" xmlns:xlink="http://www.w3.org/1999/xlink" xmlns:svgjs="http://svgjs.dev/svgjs" width="1500" height="1500" viewBox="0 0 1500 1500"><rect width="1500" height="1500" fill="#000000"></rect><g transform="matrix(0.6666666666666666,0,0,0.6666666666666666,250.00007343750008,187.66666666666674)"><svg viewBox="0 0 320 360" data-background-color="#4a5d5e" preserveAspectRatio="xMidYMid meet" height="1687" width="1500" xmlns="http://www.w3.org/2000/svg" xmlns:xlink="http://www.w3.org/1999/xlink"><g id="tight-bounds" transform="matrix(1,0,0,1,0.000023499999997511622,0)"><svg viewBox="0 0 320 360" height="360" width="320"><g><svg></svg></g><g><svg viewBox="0 0 320 360" height="360" width="320"><g><path transform="translate(-74.99272,-51.79039) scale(4.65793,4.65793)" d="M20.6 59.9l0.8 1-0.4-1.3c-0.1-0.6-0.8 0.1-0.4 0.3M21.5 59.3c0.3 0.5 0.6 1 0.6 1.5 0 0.7 0.6 1 1.1 1.2-0.7-0.8-1.1-3-1.7-2.7M59.9 16.9c1.7 0 3.3-0.2 5.1 0.2 4.4 1.1 8.1 3.3 10.6 6.4l7 11.2c0.3 2.8 0.9 5.9 0.8 9.3 0.7 0 0.6-1 1.4-1.2-0.8 2-1.2 4.5-1.4 7.4-0.5-1.6 0-4 0.1-5.3-0.7 1.1-1.1 0.3-1.1-0.2 0.1-0.8-0.3-0.7-0.6-1-1.1-1-1.8-2.1-2.6-3.8 0.5-1.3 0.6-3.2-1-4.2-0.5-0.3-1.1-0.8-1.4-1.6-0.4-1.1-1.1-2.4-0.9-4.1 0.1-0.5-1.5 1.1-2.4 0.4-3.9-2.7-7.8-5.8-12.5-8.4-2.5 0-4.3-0.9-5.2-2-0.8-1-0.2-2.3 1-2.4 0.7 0 1.5-0.2 2.1 0.2 0.1-0.4 0.5-0.9 1-0.9M50 14.6l0.2 0.1c1 0.2 1.5 1.6 2.6 1.1 0 0.7 0.1 1.4-0.1 1.9-0.3 0.8-1.2 0.8-1.9 0.8-6.7-0.4-10.6 2.4-14.7 4.8-1.1 0.7-2.3 1.2-3.2 2.1-4.3 4-9 7.7-10.1 15.1l-0.9 8.2c-0.1 0.9-1.1 1.8-0.9 2.9l0.7 4.9c-0.7-0.7-1.1 0.2-0.9 0.6 0.1 0.3 0.5 1.3 1.1 0.4 0.8 1.5 1.6 4.4 2.7 5.7 3.4 4 7.8 7.6 11.4 11.2 0.9-0.2 1.6-0.2 1.8-0.8 0.3 0.6-0.3 1.2-0.8 1.3 1.6 1 3.4 1.9 5.8 2.1 3.1 0.2 6 0.7 8.7 1.4 1.4-0.4 2.8-0.6 4.3-0.7 0.5 0 0.8-0.8 1.4-1l0.1-1c0.6 0.9 0.5-0.3 0.1-0.9 0.7 0.6 0.9 1.1 1.2 1.5 0-0.3 0.8-1.4 0.8-0.1l0.2-1.3c0.3-0.2 0.4 1.1 0.7 0.2 0.3-0.9 0.9-0.2 1.5-0.5-0.2 0.4-0.1 1.2 0.6 0.7l0.8-0.7c0.5 1.2 1.3 0.7 1.7 0.5 4.4-2.8 8.8-6.1 13-9.4l-0.1 1.3 0.5-1.6c0.5 0.5 0.9 0.1 1.1-0.2 0.6-1 1.4-2 2.7-2.9-1.6 4.3-3.5 7.7-5.9 10.5l-1 1.2c0 0.7-0.2 1.6-1 1.7-0.4 0.1-1.2-0.2-1.8 0.4-0.3 0.4 0.7 1.2-0.1 0.6-0.7-0.5-1.4 0-2.2 0.2-0.6 0.2 0.4 0.8 0.6 1.2 0.2 0.4 0.4 0.8 0.3 1.3l-1.1-1.2c-1.3 0.7-2.1 2-3.2 3-0.5 0.4-0.3 1.1-0.3 1.7-0.7 0-1.5-0.2-1.9 0.2-0.3 0.4-0.2 1-0.2 1.6-1-0.1-1.1-1.6-2-1.3-0.9 0.2-1.9 0.3-2.7 0.8 0.6 1.2-1 0.5-0.8 0.7-1.5-0.9-2.8-1.6-4.4-1-3.4-1.1-7.6-0.6-10.7-0.2 0-0.5 0.1-1-0.1-1.1-0.2 0.5-0.8 0.3-0.7 0.3-1.9-1.3-3.8-2.1-5.8-3.2-1.8 0.2-3.5-0.7-4-1.2-1.4-1.3-3-0.6-4.3-0.9-2.8-0.7-3.8-3.6-4.1-5.6-0.2-1-1-1.4-1.3-1.3-1.3-4.2-3.3-8-4.9-11.9-0.4-1-0.3-2-0.3-3.1 0.5 0.2 1 0.1 0.9-0.6-0.5-3.3-1.7-5.8-3-8.2 0.7-3.4 0.8-7.4 2.4-10.4 1.4-2.7 4-4.1 5.8-6.4 0.6-0.8 0.6-1.9 1.2-2.6 2-2 4-4.1 6.2-5.9 1-0.8 2.2 0 3.7-0.3 0.5-1.8 2.5-3.4 4.4-2.9 0.8 0.2 2.4-1.9 2.9-2.1 0.8-0.3 0.4 0.8 0.4 1.5 1.9-1.5 4.5-2.3 6.9-3.2" fill="#ffffff" fill-rule="nonzero" stroke="none" stroke-width="1" stroke-linecap="butt" stroke-linejoin="miter" stroke-miterlimit="10" stroke-dasharray="" stroke-dashoffset="0" font-family="none" font-weight="none" font-size="none" text-anchor="none" style="mix-blend-mode: normal" data-fill-palette-color="tertiary"></path></g><g transform="matrix(1,0,0,1,78.47606003843848,90)"><svg viewBox="0 0 163.04787992312305 180" height="180" width="163.04787992312305"><g><svg viewBox="0 0 163.04787992312305 180" height="180" width="163.04787992312305"><g><svg viewBox="0 0 192 211.96227768367802" height="180" width="163.04787992312305"><g transform="matrix(1,0,0,1,0,123.54045014988918)"><svg viewBox="0 0 192 88.42182753378884" height="88.42182753378884" width="192"><g id="textblocktransform"><svg viewBox="0 0 192 88.42182753378884" height="88.42182753378884" width="192" id="textblock"><g><svg viewBox="0 0 192 51.23552735923869" height="51.23552735923869" width="192"><g transform="matrix(1,0,0,1,0,0)"><svg width="192" viewBox="1.5 -32.9 126.09 33.65" height="51.23552735923869" data-palette-color="#d2dbc8"><path d="M20.3-17.35L20.3-17.35Q24.5-16.85 26.85-14.48 29.2-12.1 29.2-8.95L29.2-8.95Q29.2-5.1 25.78-2.63 22.35-0.15 16.7 0L16.7 0 1.8 0 1.5-1.6 5.75-3.15 5.75-29.9 2.2-30.1 2.25-32.5Q10.55-32.9 15.3-32.9L15.3-32.9Q20.9-32.9 24.18-30.68 27.45-28.45 27.45-24.6L27.45-24.6Q27.45-21.85 25.65-19.8 23.85-17.75 20.3-17.35ZM17.25-29.95L10.4-29.2 10.4-18.4 12.9-18.4Q17.7-18.4 20-20.1 22.3-21.8 22.3-24.25L22.3-24.25Q22.3-26.25 20.88-27.93 19.45-29.6 17.25-29.95L17.25-29.95ZM10.4-3.45L15.4-3.05 16.5-3Q20-3 21.9-4.7 23.8-6.4 23.8-8.85L23.8-8.85Q23.8-11.6 21.5-13.6 19.2-15.6 15.7-15.7L15.7-15.7 10.4-15.7 10.4-3.45ZM49.5-12.85L36.65-13.1Q36.65-8.15 38.92-5.6 41.2-3.05 44.85-3.05L44.85-3.05Q47.55-3.05 51.25-4.7L51.25-4.7 52-2.55 44.2 0.75Q38.7 0.75 35.32-2.63 31.95-6 31.95-11.3L31.95-11.3Q31.95-16.7 35.27-20.55 38.6-24.4 43.4-24.4L43.4-24.4Q46-24.4 48.07-23.25 50.15-22.1 51.27-20.1 52.4-18.1 52.35-15.65L52.35-15.65 49.5-12.85ZM40.9-21.35L40.9-21.35Q38.05-19.85 37.05-15.75L37.05-15.75 48-16.25Q47.5-18.65 45.52-20.1 43.55-21.55 40.9-21.35ZM76.84-3.75L77.59-1.55 72.55 0.75Q71.8 0.65 70.65-0.43 69.5-1.5 69-2.7L69-2.7 63.35 0.7 62.15 0.75Q59.15 0.75 57.32-0.95 55.5-2.65 55.5-5.2L55.5-5.2Q55.5-8.6 59-10.55L59-10.55 68.75-10.8 68.75-15.95Q68.75-18.25 68.2-19.43 67.65-20.6 66.3-21.3L66.3-21.3Q63.25-21.2 60.65-20.45L60.65-20.45 60.25-15.25 57.6-15.05Q56.3-17.4 56.15-21.05L56.15-21.05Q58.35-22.3 62.05-23.48 65.75-24.65 67.3-24.65L67.3-24.65Q68.7-24.65 70.2-23.63 71.7-22.6 72.45-21.48 73.2-20.35 73.25-17.4L73.25-17.4 73.25-4.3Q73.25-3.3 74.55-3.3L74.55-3.3Q75.3-3.3 76.84-3.75L76.84-3.75ZM61.5-2.9L61.5-2.9Q64.45-2.8 68.75-4.75L68.75-4.75 68.75-8.2 66.25-8.35Q60.2-8.35 60.2-5.2L60.2-5.2Q60.2-3.7 61.5-2.9ZM88.89-3.4L88.89-3.4Q90.34-3.4 93.49-4.55L93.49-4.55 94.34-2.25 87.84 0.75Q86.14 0.85 84.47-0.53 82.79-1.9 82.79-3.5L82.79-3.5 82.79-19.65 79.69-19.6 79.34-22Q80.94-22.7 82.89-23.15L82.89-23.15 84.89-29.45 87.24-29.45 87.24-23.4 94.24-23.4 94.44-21.95 92.09-19.55 87.24-19.55 87.24-6.1Q87.24-4.55 87.59-3.98 87.94-3.4 88.89-3.4ZM105.89-2.9L110.74-2.35 110.69 0 97.29 0 96.99-1.6 101.24-3.15 101.24-29.7 97.39-30.15 97.44-32.5 109.84-32.5 110.14-30.9 105.89-29.35 105.89-2.9ZM122.04-3.4L122.04-3.4Q123.49-3.4 126.64-4.55L126.64-4.55 127.49-2.25 120.99 0.75Q119.29 0.85 117.61-0.53 115.94-1.9 115.94-3.5L115.94-3.5 115.94-19.65 112.84-19.6 112.49-22Q114.09-22.7 116.04-23.15L116.04-23.15 118.04-29.45 120.39-29.45 120.39-23.4 127.39-23.4 127.59-21.95 125.24-19.55 120.39-19.55 120.39-6.1Q120.39-4.55 120.74-3.98 121.09-3.4 122.04-3.4Z" opacity="1" transform="matrix(1,0,0,1,0,0)" fill="#ffffff" class="wordmark-text-0" data-fill-palette-color="primary" id="text-0"></path></svg></g></svg></g><g transform="matrix(1,0,0,1,0,58.71202045360823)"><svg viewBox="0 0 192 29.709807080180603" height="29.709807080180603" width="192"><g transform="matrix(1,0,0,1,0,0)"><svg width="192" viewBox="0.16 -30.96 286.5199999999999 44.4" height="29.709807080180603" data-palette-color="#d2dbc8"><path d="M1.96 1.64L1.96 1.64Q1.96 4.6 5.08 5.2L5.08 5.2Q5.68 5.32 6.44 5.32L6.44 5.32Q11.44 5.32 14.36 2.1 17.28-1.12 17.28-6L17.28-6Q17.28-7.92 16.58-9.54 15.88-11.16 14.84-12.22 13.8-13.28 12.58-14.36 11.36-15.44 10.32-16.32 9.28-17.2 8.58-18.44 7.88-19.68 7.88-21.08L7.88-21.08Q7.88-24.76 11.18-27.86 14.48-30.96 18.28-30.96L18.28-30.96Q19.04-30.96 19.4-30.4 19.76-29.84 19.76-29.28L19.76-29.28 19.72-28.76Q19.44-28.92 18.32-28.92L18.32-28.92Q15.76-28.92 13.36-26.52 10.96-24.12 10.96-20.96L10.96-20.96Q10.96-19.68 11.66-18.46 12.36-17.24 13.4-16.32 14.44-15.4 15.64-14.26 16.84-13.12 17.88-12.02 18.92-10.92 19.62-9.34 20.32-7.76 20.32-6L20.32-6Q20.32-1.16 16.32 2.6 12.32 6.36 6.44 6.36L6.44 6.36Q1.48 6.36 0.16 3.16L0.16 3.16Q-0.88 0.52 0.96-2.68 2.8-5.88 6.28-7L6.28-7Q7.56-7.4 8.56-7.4 9.56-7.4 9.94-7.06 10.32-6.72 10.44-6L10.44-6Q6.68-6 4-2.96L4-2.96Q1.96-0.68 1.96 1.64ZM20.52-20.48L20.52-20.48Q20.52-20.28 20.14-20.28 19.76-20.28 19.44-20.44 19.12-20.6 19.12-20.88L19.12-20.88Q19.12-24.96 20.04-27.44 20.96-29.92 22.48-29.92L22.48-29.92Q22.88-29.92 23.16-29.64 23.44-29.36 23.44-28.92L23.44-28.92Q21.64-27.12 20.84-23.52L20.84-23.52Q20.52-22.08 20.52-20.48ZM33.92-4.88L33.92-4.88Q33.92-9.8 35.72-17.32L35.72-17.32Q35.84-17.72 35.48-17.68L35.48-17.68Q35.2-17.64 34.96-17.44L34.96-17.44Q33.2-15.96 31.08-11.96 28.96-7.96 27.68-4.66 26.4-1.36 26.4-0.8L26.4-0.8Q26.4-0.32 25.8-0.32L25.8-0.32Q24.6-0.32 24.6-3.48L24.6-3.48Q24.6-9.48 25.8-14.3 27-19.12 28.72-19.12L28.72-19.12Q29.48-19.12 29.48-18.28L29.48-18.28Q27.64-12.48 26.84-6.36L26.84-6.36 27.2-6.36Q32.48-19.56 36.92-19.56L36.92-19.56Q38.84-19.56 38.84-17.68L38.84-17.68Q36.96-12.08 36.12-6.64L36.12-6.64 36.44-6.64Q37.76-9.44 39.1-11.74 40.44-14.04 42.24-16.02 44.04-18 45.48-18L45.48-18Q47.4-18 47.4-16.16L47.4-16.16Q45.32-9.24 45.32-2.68L45.32-2.68Q45.32 1.56 46.6 1.56L46.6 1.56Q47.04 1.56 47.48 1.18 47.92 0.8 48.08 0.8L48.08 0.8Q48.64 0.8 48.04 1.68L48.04 1.68Q47.88 1.96 47.34 2.44 46.8 2.92 46.28 2.92L46.28 2.92Q44.72 2.92 43.86 0.74 43-1.44 43-4.92L43-4.92Q43-11.04 44.28-15.68L44.28-15.68Q44.36-15.96 44.08-15.96L44.08-15.96Q43.84-15.92 43.6-15.72L43.6-15.72Q41.32-13.76 38.52-8.46 35.72-3.16 35.72-2.2L35.72-2.2Q35.72-1.72 35.08-1.72L35.08-1.72Q33.92-1.72 33.92-4.88ZM54.08 0L54.08 0Q50.8 0 50.8-5.16L50.8-5.16Q50.8-8.24 52.32-11.92L52.32-11.92Q54.44-17.08 57.88-18.96L57.88-18.96Q59.36-19.76 60.64-19.76 61.92-19.76 62.66-19.2 63.4-18.64 63.6-18.08L63.6-18.08 63.84-17.56Q63.72-16.88 63.16-16.88L63.16-16.88Q62.52-16.88 62.42-17.18 62.32-17.48 62.2-17.7 62.08-17.92 61.64-18.3 61.2-18.68 60.64-18.68L60.64-18.68Q58.04-18.68 55.92-14L55.92-14Q53.52-8.6 53.52-3.84L53.52-3.84Q53.52-1.44 54.48-1.44L54.48-1.44Q55.24-1.44 56.62-3.14 58-4.84 59.52-7.4L59.52-7.4Q62.16-11.8 63.8-15.04L63.8-15.04Q65.16-17.92 66.59-17.92L66.59-17.92Q67.36-17.92 67.36-17L67.36-17Q67-16.24 66.44-14.84 65.88-13.44 64.95-9.28 64.03-5.12 64.03-1 64.03 3.12 65.28 3.12L65.28 3.12Q65.76 3.12 66.16 2.7 66.56 2.28 66.88 1.44L66.88 1.44Q67 1 67.44 1L67.44 1Q67.59 1 67.68 1.12 67.75 1.24 67.68 1.52 67.59 1.8 67.4 2.3 67.2 2.8 66.53 3.64 65.88 4.48 65.16 4.48L65.16 4.48Q63.48 4.48 62.58 2.28 61.68 0.08 61.68-2.92 61.68-5.92 62.12-8.68L62.12-8.68 61.72-8.68Q56.64 0 54.08 0ZM72.67-1.36L72.67-1.36Q72.67 1.44 74.47 1.44L74.47 1.44Q76.15 1.44 77.61-1.32 79.07-4.08 79.07-8.28L79.07-8.28Q79.07-10.32 78.33-14.04 77.59-17.76 77.59-18.9 77.59-20.04 77.67-20.4L77.67-20.4Q77.15-19.56 74.67-14.82 72.19-10.08 70.27-7.32L70.27-7.32Q70.11-7.16 69.83-7.22 69.55-7.28 69.37-7.46 69.19-7.64 69.19-7.72 69.19-7.8 69.23-7.84L69.23-7.84Q71.11-10.56 73.61-15.34 76.11-20.12 77.79-22.48 79.47-24.84 81.11-24.84L81.11-24.84Q81.95-24.84 81.95-24.12L81.95-24.12Q81.95-23.64 81.27-22.84L81.27-22.84Q79.11-20.4 79.11-17.84L79.11-17.84Q79.11-16.32 80.27-11.98 81.43-7.64 81.43-5.68L81.43-5.68Q81.43-2.16 79.47 0.3 77.51 2.76 75.03 2.76L75.03 2.76Q71.51 2.76 71.51-1.28L71.51-1.28Q71.51-4.32 73.37-7.64 75.23-10.96 77.11-12.12L77.11-12.12Q77.47-12.36 77.57-11.84 77.67-11.32 77.43-11.16L77.43-11.16Q75.31-9.96 73.75-6.04L73.75-6.04Q72.67-3.28 72.67-1.36ZM92.31-11.6Q90.19-7.76 89.01-4.8 87.83-1.84 87.83-1.3 87.83-0.76 87.27-0.76L87.27-0.76Q86.07-0.76 86.07-3.96L86.07-3.96Q86.07-10.32 87.35-16.74 88.63-23.16 90.39-27.02 92.15-30.88 93.67-30.88L93.67-30.88Q94.31-30.88 94.31-30.24L94.31-30.24Q92.19-25.56 90.77-19.56 89.35-13.56 88.39-6.76L88.39-6.76 88.67-6.76Q93.75-19.24 98.63-19.24L98.63-19.24Q100.67-19.24 100.67-17.28L100.67-17.28Q100.39-16.36 99.95-14.86 99.51-13.36 98.79-9.48 98.07-5.6 98.07-2.68L98.07-2.68Q98.07 1.56 99.31 1.56L99.31 1.56Q99.75 1.56 100.19 1.18 100.63 0.8 100.79 0.8L100.79 0.8Q101.35 0.8 100.75 1.68L100.75 1.68Q100.59 1.96 100.05 2.44 99.51 2.92 98.99 2.92L98.99 2.92Q97.43 2.92 96.57 0.74 95.71-1.44 95.71-4.92L95.71-4.92Q95.71-10.8 97.47-17.04L97.47-17.04Q97.55-17.64 96.99-17.56L96.99-17.56Q96.71-17.52 96.43-17.24L96.43-17.24Q94.43-15.44 92.31-11.6ZM114.99 12.52L114.99 12.52Q118.59 12.52 120.63 9.12L120.63 9.12Q122.39 6.12 123.35 1.64L123.35 1.64Q116.11 1.8 112.23 7.16L112.23 7.16Q111.99 7.52 111.47 7.28L111.47 7.28Q111.19 7.12 111.31 6.88L111.31 6.88Q113.03 4.28 116.11 2.46 119.19 0.64 123.59 0.48L123.59 0.48Q124.03-1.52 124.43-4.2 124.83-6.88 125.35-9.4L125.35-9.4 124.99-9.4Q119.79-0.16 117.07-0.16L117.07-0.16Q114.03-0.16 114.03-4.84 114.03-9.52 116.03-14.26 118.03-19 119.67-19.36L119.67-19.36 119.91-19.4Q120.59-19.4 120.59-18.52L120.59-18.52Q120.15-17.44 119.47-15.7 118.79-13.96 117.67-9.98 116.55-6 116.55-3.78 116.55-1.56 117.51-1.56L117.51-1.56Q118.63-1.56 121.11-5.44L121.11-5.44Q124.75-11.12 127.43-16.96L127.43-16.96Q128.59-19.4 129.91-19.4L129.91-19.4Q130.75-19.4 130.75-18.48L130.75-18.48Q129.99-17.08 128.91-13.24 127.83-9.4 127.15-5.5 126.47-1.6 125.99 0.6L125.99 0.6Q129.03 1.12 129.51 3.24L129.51 3.24Q129.59 3.6 129.59 4.22 129.59 4.84 129.11 5.3 128.63 5.76 128.27 5.76L128.27 5.76Q128.35 5.48 128.31 4.78 128.27 4.08 128.05 3.6 127.83 3.12 127.23 2.6 126.63 2.08 125.67 1.84L125.67 1.84Q122.59 13.44 114.99 13.44L114.99 13.44Q111.71 13.44 110.63 11.12L110.63 11.12Q110.59 11 110.59 10.92L110.59 10.92Q110.59 10.68 111.01 10.62 111.43 10.56 111.63 10.88L111.63 10.88Q112.35 12.52 114.99 12.52ZM137.38 0.36L137.38 0.36Q132.46 0.36 132.46-6.4L132.46-6.4Q132.46-10.2 134.38-14L134.38-14Q136.82-18.8 140.18-18.8L140.18-18.8Q140.66-18.8 140.98-18.56 141.3-18.32 141.42-17.84L141.42-17.84Q138.9-17.84 137.06-13.8 135.22-9.76 135.22-5.84L135.22-5.84Q135.22-1.08 137.82-1.08L137.82-1.08Q139.3-1.08 140.9-3.34 142.5-5.6 143.56-9.28 144.62-12.96 144.62-16.68L144.62-16.68 144.62-17.16Q143.38-17.96 142.58-19.16 141.78-20.36 141.78-20.92 141.78-21.48 142.28-21.98 142.78-22.48 143.3-22.48L143.3-22.48Q144.06-22.48 144.78-21.12 145.5-19.76 145.78-18.04L145.78-18.04Q147.02-17.2 147.96-17.2 148.9-17.2 149.46-17.52L149.46-17.52Q149.46-16.96 149.06-16.52 148.66-16.08 147.82-16.08 146.98-16.08 145.9-16.48L145.9-16.48Q145.86-12.64 144.74-8.76 143.62-4.88 141.62-2.26 139.62 0.36 137.38 0.36ZM163.02 3L163.02 3Q163.5 3 163.92 2.58 164.34 2.16 164.7 1.28L164.7 1.28Q164.74 0.92 165.18 0.92 165.62 0.92 165.52 1.28 165.42 1.64 165.2 2.16 164.98 2.68 164.28 3.54 163.58 4.4 162.86 4.4L162.86 4.4Q161.26 4.4 160.38 2.4L160.38 2.4Q159.46 0.4 159.46-2.54 159.46-5.48 159.9-8.6L159.9-8.6 159.54-8.6Q154.7-0.16 152.1-0.16L152.1-0.16Q149.02-0.16 149.02-4.86 149.02-9.56 151.02-14.24L151.02-14.24Q153.22-19.4 154.9-19.4L154.9-19.4Q155.62-19.4 155.62-18.52L155.62-18.52Q153.94-14.08 152.74-9.88 151.54-5.68 151.54-3.62 151.54-1.56 152.5-1.56L152.5-1.56Q153.18-1.56 154.52-3.2 155.86-4.84 157.26-7.2L157.26-7.2Q160.26-12.28 161.84-15.84 163.42-19.4 165.1-19.4L165.1-19.4Q165.9-19.4 165.9-18.52L165.9-18.52Q163.34-13.44 162.26-6.4L162.26-6.4Q161.82-3.6 161.82-0.92L161.82-0.92Q161.82 3 163.02 3ZM180.74-11.48L180.74-11.48Q179.22-11.48 179.22-14.8L179.22-14.8Q179.22-16.68 179.94-18.32L179.94-18.32Q177.22-15.96 173.86-9.54 170.5-3.12 170.5-1.16L170.5-1.16Q170.5-0.68 169.86-0.68L169.86-0.68Q168.7-0.68 168.7-3.84L168.7-3.84Q168.7-9.8 169.9-14.64 171.1-19.48 172.82-19.48L172.82-19.48Q173.58-19.48 173.58-18.6L173.58-18.6Q171.74-12.76 170.94-6.64L170.94-6.64 171.22-6.64Q174.46-14.12 178.38-18.32L178.38-18.32Q180.62-20.72 182.46-20.72L182.46-20.72Q182.86-20.72 183.12-20.48 183.38-20.24 183.38-19.88L183.38-19.88Q183.1-19.6 182.7-19.04 182.3-18.48 181.62-16.38 180.94-14.28 180.94-11.8L180.94-11.8Q180.94-11.48 180.74-11.48ZM196.85-1.36L196.85-1.36Q196.85 1.44 198.65 1.44L198.65 1.44Q200.33 1.44 201.79-1.32 203.25-4.08 203.25-8.28L203.25-8.28Q203.25-10.32 202.51-14.04 201.77-17.76 201.77-18.9 201.77-20.04 201.85-20.4L201.85-20.4Q201.33-19.56 198.85-14.82 196.37-10.08 194.45-7.32L194.45-7.32Q194.29-7.16 194.01-7.22 193.73-7.28 193.55-7.46 193.37-7.64 193.37-7.72 193.37-7.8 193.41-7.84L193.41-7.84Q195.29-10.56 197.79-15.34 200.29-20.12 201.97-22.48 203.65-24.84 205.29-24.84L205.29-24.84Q206.13-24.84 206.13-24.12L206.13-24.12Q206.13-23.64 205.45-22.84L205.45-22.84Q203.29-20.4 203.29-17.84L203.29-17.84Q203.29-16.32 204.45-11.98 205.61-7.64 205.61-5.68L205.61-5.68Q205.61-2.16 203.65 0.3 201.69 2.76 199.21 2.76L199.21 2.76Q195.69 2.76 195.69-1.28L195.69-1.28Q195.69-4.32 197.55-7.64 199.41-10.96 201.29-12.12L201.29-12.12Q201.65-12.36 201.75-11.84 201.85-11.32 201.61-11.16L201.61-11.16Q199.49-9.96 197.93-6.04L197.93-6.04Q196.85-3.28 196.85-1.36ZM219.77-3.32Q219.93-3.68 220.45-3.68 220.97-3.68 220.97-3.44L220.97-3.44 220.97-3.32Q220.81-2.88 220.09-1.9 219.37-0.92 218.71-0.32 218.05 0.28 217.01 0.78 215.97 1.28 214.89 1.28L214.89 1.28Q210.69 1.28 209.53-2.76L209.53-2.76Q208.49-6.52 210.37-11.32 212.25-16.12 215.61-18.2L215.61-18.2Q217.37-19.28 218.97-19.28 220.57-19.28 221.29-18.36L221.29-18.36Q222.37-21.84 224.05-21.84L224.05-21.84Q224.69-21.84 224.69-21.16L224.69-21.16Q224.37-20.68 223.87-19.9 223.37-19.12 222.53-17.12 221.69-15.12 221.69-13.6L221.69-13.6Q221.69-13.08 221.25-13.08L221.25-13.08Q220.73-13.08 220.65-14L220.65-14Q220.65-15.56 220.93-16.92L220.93-16.92Q220.69-18.16 219.17-18.16L219.17-18.16Q216.29-18.16 214.11-13.8 211.93-9.44 211.93-5.28L211.93-5.28Q211.93-0.08 215.21-0.08L215.21-0.08Q216.49-0.08 217.63-0.88 218.77-1.68 219.25-2.48L219.25-2.48 219.77-3.32ZM237.41-11.48L237.41-11.48Q235.89-11.48 235.89-14.8L235.89-14.8Q235.89-16.68 236.61-18.32L236.61-18.32Q233.89-15.96 230.53-9.54 227.17-3.12 227.17-1.16L227.17-1.16Q227.17-0.68 226.53-0.68L226.53-0.68Q225.37-0.68 225.37-3.84L225.37-3.84Q225.37-9.8 226.57-14.64 227.77-19.48 229.49-19.48L229.49-19.48Q230.25-19.48 230.25-18.6L230.25-18.6Q228.41-12.76 227.61-6.64L227.61-6.64 227.89-6.64Q231.13-14.12 235.05-18.32L235.05-18.32Q237.29-20.72 239.13-20.72L239.13-20.72Q239.53-20.72 239.79-20.48 240.05-20.24 240.05-19.88L240.05-19.88Q239.77-19.6 239.37-19.04 238.97-18.48 238.29-16.38 237.61-14.28 237.61-11.8L237.61-11.8Q237.61-11.48 237.41-11.48ZM250.45-19.4L250.45-19.4Q253.49-19.4 253.49-15.84L253.49-15.84Q253.49-13.8 252.13-11.56L252.13-11.56Q249.81-7.84 245.97-7.84L245.97-7.84Q245.37-7.84 244.97-8.04 244.57-8.24 244.37-8.64L244.37-8.64Q247.21-8.64 249.57-11.92L249.57-11.92Q251.49-14.56 251.49-16.76L251.49-16.76Q251.49-18.4 250.17-18.4L250.17-18.4Q247.53-18.4 245.25-14.28L245.25-14.28Q242.81-9.8 242.81-5.08L242.81-5.08Q242.81-1.08 245.09-0.28L245.09-0.28Q245.53-0.12 246.21-0.12 246.89-0.12 247.65-0.46 248.41-0.8 248.93-1.28L248.93-1.28Q249.97-2.24 250.65-3.4L250.65-3.4Q250.81-3.72 251.25-3.72L251.25-3.72Q251.97-3.72 251.93-3.48L251.93-3.48Q251.81-3.04 251.03-2 250.25-0.96 249.59-0.34 248.93 0.28 247.87 0.78 246.81 1.28 245.73 1.28L245.73 1.28Q241.49 1.28 240.33-2.72L240.33-2.72Q239.97-4.08 239.97-5.52L239.97-5.52Q239.97-8.2 241.21-11.36L241.21-11.36Q243.17-16.16 246.61-18.28L246.61-18.28Q248.49-19.4 250.45-19.4ZM266-19.4L266-19.4Q269.04-19.4 269.04-15.84L269.04-15.84Q269.04-13.8 267.68-11.56L267.68-11.56Q265.36-7.84 261.52-7.84L261.52-7.84Q260.92-7.84 260.52-8.04 260.12-8.24 259.92-8.64L259.92-8.64Q262.76-8.64 265.12-11.92L265.12-11.92Q267.04-14.56 267.04-16.76L267.04-16.76Q267.04-18.4 265.72-18.4L265.72-18.4Q263.08-18.4 260.8-14.28L260.8-14.28Q258.36-9.8 258.36-5.08L258.36-5.08Q258.36-1.08 260.64-0.28L260.64-0.28Q261.08-0.12 261.76-0.12 262.44-0.12 263.2-0.46 263.96-0.8 264.48-1.28L264.48-1.28Q265.52-2.24 266.2-3.4L266.2-3.4Q266.36-3.72 266.8-3.72L266.8-3.72Q267.52-3.72 267.48-3.48L267.48-3.48Q267.36-3.04 266.58-2 265.8-0.96 265.14-0.34 264.48 0.28 263.42 0.78 262.36 1.28 261.28 1.28L261.28 1.28Q257.04 1.28 255.88-2.72L255.88-2.72Q255.52-4.08 255.52-5.52L255.52-5.52Q255.52-8.2 256.76-11.36L256.76-11.36Q258.72-16.16 262.16-18.28L262.16-18.28Q264.04-19.4 266-19.4ZM273.84-6.48L274.2-6.48Q279.36-19.24 284.24-19.24L284.24-19.24Q286.28-19.24 286.28-17.28L286.28-17.28Q286-16.36 285.56-14.86 285.12-13.36 284.38-9.48 283.64-5.6 283.64-2.68L283.64-2.68Q283.64 1.56 284.88 1.56L284.88 1.56Q285.36 1.56 285.8 1.18 286.24 0.8 286.4 0.8L286.4 0.8Q286.96 0.8 286.4 1.68L286.4 1.68Q286.2 1.96 285.66 2.44 285.12 2.92 284.56 2.92L284.56 2.92Q283.04 2.92 282.18 0.74 281.32-1.44 281.32-4.92L281.32-4.92Q281.32-10.44 283.04-17.04L283.04-17.04Q283.2-17.56 282.72-17.56L282.72-17.56Q282.4-17.56 282-17.24L282-17.24Q280.08-15.56 277.96-11.68 275.84-7.8 274.64-4.74 273.44-1.68 273.44-1.18 273.44-0.68 272.88-0.68L272.88-0.68Q271.6-0.68 271.6-3.84L271.6-3.84Q271.6-9.8 272.82-14.64 274.04-19.48 275.76-19.48L275.76-19.48Q276.48-19.48 276.48-18.6L276.48-18.6Q274.64-12.64 273.84-6.48L273.84-6.48Z" opacity="1" transform="matrix(1,0,0,1,0,0)" fill="#ffffff" class="slogan-text-1" data-fill-palette-color="secondary" id="text-1"></path></svg></g></svg></g></svg></g></svg></g><g transform="matrix(1,0,0,1,36.672000000000004,0)"><svg viewBox="0 0 118.65599999999999 116.06395705551964" height="116.06395705551964" width="118.65599999999999"><g><svg xmlns="http://www.w3.org/2000/svg" xmlns:xlink="http://www.w3.org/1999/xlink" version="1.1" x="0" y="0" viewBox="9.762 11.641 80.476 78.71799999999999" enable-background="new 0 0 100 100" xml:space="preserve" height="116.06395705551964" width="118.65599999999999" class="icon-icon-0" data-fill-palette-color="accent" id="icon-0"><g fill="#f8f8ec" data-fill-palette-color="accent"><g fill="#f8f8ec" data-fill-palette-color="accent"><g fill="#f8f8ec" data-fill-palette-color="accent"><path d="M50 63.201c-10.178 0-19.78-0.969-27.038-2.727-8.882-2.152-13.2-5.192-13.2-9.295s4.317-7.144 13.2-9.296c7.259-1.759 16.86-2.728 27.038-2.728s19.779 0.969 27.038 2.728c8.883 2.152 13.2 5.193 13.2 9.296s-4.318 7.143-13.2 9.295C69.78 62.232 60.178 63.201 50 63.201zM15.888 51.18c1.714 1.962 12.867 6.021 34.112 6.021s32.398-4.06 34.112-6.021C82.398 49.217 71.245 45.156 50 45.156S17.602 49.217 15.888 51.18z" fill="#ffffff" data-fill-palette-color="accent"></path></g><g fill="#f8f8ec" data-fill-palette-color="accent"><path d="M50.022 90.359C48.389 90.359 10 90.225 10 78.477V53c0-1.657 1.343-3 3-3s3 1.343 3 3v25.276c0.48 0.653 3.018 2.395 10.154 3.91 6.597 1.401 15.073 2.173 23.868 2.173 8.794 0 17.264-0.771 23.85-2.173 7.123-1.516 9.651-3.256 10.128-3.907V53c0-1.657 1.343-3 3-3s3 1.343 3 3v25.477C90 90.225 51.655 90.359 50.022 90.359z" fill="#ffffff" data-fill-palette-color="accent"></path></g><g fill="#f8f8ec" data-fill-palette-color="accent"><path d="M50.022 67.428c-9.939 0-19.334-0.945-26.454-2.66-8.752-2.109-13.006-5.099-13.006-9.139 0-1.657 1.343-3 3-3 1.589 0 2.89 1.235 2.993 2.798 1.411 2.197 13.55 6.001 33.467 6.001 19.898 0 32.018-3.803 33.422-5.998 0.103-1.564 1.403-2.801 2.993-2.801 1.657 0 3 1.343 3 3 0 4.04-4.246 7.029-12.982 9.138C69.347 66.482 59.959 67.428 50.022 67.428z" fill="#ffffff" data-fill-palette-color="accent"></path></g><g fill="#f8f8ec" data-fill-palette-color="accent"><path d="M50.022 84.996c-14.68 0-39.522-2.408-39.522-11.436 0-1.381 1.119-2.5 2.5-2.5 1.365 0 2.476 1.095 2.5 2.455 0.692 1.865 11.862 6.48 34.522 6.48 22.734 0 33.881-4.651 34.485-6.502 0-1.38 1.115-2.467 2.496-2.467S89.5 72.18 89.5 73.561C89.5 82.588 64.686 84.996 50.022 84.996z" fill="#ffffff" data-fill-palette-color="accent"></path></g></g><g fill="#f8f8ec" data-fill-palette-color="accent"><g fill="#f8f8ec" data-fill-palette-color="accent"><g fill="#f8f8ec" data-fill-palette-color="accent"><g fill="#f8f8ec" data-fill-palette-color="accent"><path d="M76.161 53.017c-0.417 0-0.851-0.139-1.221-0.391-0.478-0.323-0.809-0.804-0.906-1.316-0.078-0.406-0.002-0.807 0.215-1.126 0.28-0.411 0.757-0.647 1.309-0.647 0.416 0 0.85 0.139 1.219 0.391 0.887 0.604 1.196 1.699 0.691 2.444C77.188 52.781 76.712 53.017 76.161 53.017z" fill="#ffffff" data-fill-palette-color="accent"></path></g><g fill="#f8f8ec" data-fill-palette-color="accent"><path d="M75.558 50.036c0.306 0 0.638 0.1 0.937 0.303 0.66 0.449 0.91 1.233 0.559 1.75-0.192 0.283-0.523 0.427-0.892 0.427-0.307 0-0.64-0.1-0.94-0.304-0.66-0.447-0.91-1.23-0.559-1.748C74.855 50.182 75.188 50.036 75.558 50.036M75.558 49.036c-0.72 0-1.348 0.316-1.722 0.866-0.292 0.43-0.396 0.963-0.293 1.501 0.123 0.642 0.531 1.239 1.118 1.637 0.451 0.307 0.984 0.476 1.5 0.476 0.719 0 1.346-0.315 1.72-0.865 0.66-0.972 0.291-2.38-0.823-3.139C76.606 49.206 76.073 49.036 75.558 49.036L75.558 49.036z" fill="#ffffff" data-fill-palette-color="accent"></path></g></g><g fill="#f8f8ec" data-fill-palette-color="accent"><g fill="#f8f8ec" data-fill-palette-color="accent"><path d="M76.712 52.478c-2.702 0-40.371-25.616-56.441-36.629l-0.323-0.222c-0.78-0.531-0.925-1.685-0.323-2.572 0.384-0.563 1.007-0.914 1.627-0.914 0.32 0 0.626 0.093 0.883 0.269l0.233 0.157c20.348 13.71 54.545 37.034 54.962 39.198l0.039 0.204-0.128 0.248C77.175 52.313 77.018 52.478 76.712 52.478z" fill="#ffffff" data-fill-palette-color="accent"></path></g><g fill="#f8f8ec" data-fill-palette-color="accent"><path d="M21.251 12.641c0.214 0 0.421 0.058 0.602 0.181 0.553 0.375 55.975 37.645 54.975 39.113-0.019 0.028-0.058 0.042-0.115 0.042-2.961 0-55.942-36.397-56.484-36.764-0.554-0.377-0.638-1.217-0.19-1.877C20.341 12.891 20.809 12.641 21.251 12.641M21.251 11.641L21.251 11.641c-0.795 0-1.557 0.423-2.039 1.132-0.757 1.116-0.554 2.58 0.453 3.266l0.322 0.22c4.683 3.21 16.855 11.528 28.706 19.43 25.926 17.288 27.34 17.288 28.019 17.288 0.392 0 0.735-0.175 0.943-0.48 0.163-0.239 0.222-0.533 0.165-0.827-0.141-0.732-0.354-1.839-26.483-19.939-11.867-8.22-24.016-16.431-28.688-19.579l-0.234-0.158C22.075 11.763 21.672 11.641 21.251 11.641L21.251 11.641z" fill="#ffffff" data-fill-palette-color="accent"></path></g></g></g><g fill="#f8f8ec" data-fill-palette-color="accent"><g fill="#f8f8ec" data-fill-palette-color="accent"><g fill="#f8f8ec" data-fill-palette-color="accent"><path d="M23.839 53.017c-0.551 0-1.027-0.235-1.307-0.646-0.505-0.745-0.195-1.841 0.691-2.444 0.369-0.252 0.803-0.391 1.219-0.391 0.552 0 1.028 0.236 1.309 0.647 0.217 0.319 0.293 0.72 0.215 1.126-0.098 0.513-0.429 0.993-0.907 1.317C24.689 52.878 24.256 53.017 23.839 53.017L23.839 53.017z" fill="#ffffff" data-fill-palette-color="accent"></path></g><g fill="#f8f8ec" data-fill-palette-color="accent"><path d="M24.442 50.036c0.37 0 0.702 0.145 0.894 0.428 0.352 0.518 0.102 1.301-0.559 1.748-0.3 0.204-0.633 0.304-0.939 0.304-0.369 0-0.701-0.145-0.893-0.427-0.352-0.517-0.102-1.301 0.559-1.75C23.804 50.136 24.136 50.036 24.442 50.036M24.442 49.036c-0.516 0-1.049 0.169-1.5 0.476-1.114 0.758-1.484 2.166-0.823 3.139 0.374 0.55 1 0.865 1.72 0.865 0.516 0 1.05-0.17 1.502-0.477 0.586-0.397 0.993-0.993 1.116-1.635 0.103-0.538-0.001-1.071-0.293-1.501C25.79 49.352 25.163 49.036 24.442 49.036L24.442 49.036z" fill="#ffffff" data-fill-palette-color="accent"></path></g></g><g fill="#f8f8ec" data-fill-palette-color="accent"><g fill="#f8f8ec" data-fill-palette-color="accent"><path d="M23.288 52.478c-0.306 0-0.463-0.164-0.529-0.261l-0.116-0.172 0.028-0.28c0.417-2.164 34.614-25.488 54.962-39.198l0.234-0.158c0.256-0.175 0.562-0.268 0.882-0.268 0.62 0 1.243 0.351 1.626 0.914 0.603 0.888 0.458 2.041-0.321 2.571l-0.326 0.224C63.659 26.862 25.994 52.478 23.288 52.478L23.288 52.478z" fill="#ffffff" data-fill-palette-color="accent"></path></g><g fill="#f8f8ec" data-fill-palette-color="accent"><path d="M78.749 12.641c0.442 0 0.91 0.25 1.212 0.695 0.448 0.66 0.364 1.5-0.189 1.877-0.542 0.368-53.524 36.764-56.484 36.764-0.057 0-0.096-0.014-0.115-0.042-1-1.469 54.422-38.738 54.975-39.113C78.328 12.699 78.536 12.641 78.749 12.641M78.749 11.641c-0.421 0-0.824 0.123-1.165 0.355l-0.232 0.157c-4.673 3.148-16.821 11.359-28.688 19.579-26.13 18.1-26.343 19.207-26.483 19.939-0.056 0.294 0.002 0.588 0.166 0.828 0.206 0.304 0.55 0.479 0.942 0.479 0.679 0 2.093 0 28.019-17.288 11.851-7.902 24.023-16.22 28.706-19.43l0.321-0.22c1.009-0.687 1.212-2.152 0.455-3.266C80.306 12.064 79.544 11.641 78.749 11.641L78.749 11.641z" fill="#ffffff" data-fill-palette-color="accent"></path></g></g></g></g></g></svg></g></svg></g><g></g></svg></g></svg></g></svg></g></svg></g><defs></defs></svg><rect width="320" height="360" fill="none" stroke="none" visibility="hidden"></rect></g></svg></g></svg>